<?xml version="1.0" encoding="utf-8"?>
<svg id="text_underline" viewBox="0 0 20 20" fill="none" xmlns="http://www.w3.org/2000/svg">
    <path d="M14.875 15.7609H5.125C5.05625 15.7609 5 15.8163 5 15.8848V16.8761C5 16.9446 5.05625 17 5.125 17H14.875C14.9438 17 15 16.9446 15 16.8761V15.8848C15 15.8163 14.9438 15.7609 14.875 15.7609ZM10 14.5217C11.0844 14.5217 12.1031 14.0799 12.8719 13.2793C13.6406 12.4788 14.0625 11.4141 14.0625 10.2826V5.19565C14.0625 5.08804 13.9781 5 13.875 5H12.9375C12.8344 5 12.75 5.08804 12.75 5.19565V10.2826C12.75 11.8641 11.5156 13.1522 10 13.1522C8.48438 13.1522 7.25 11.8641 7.25 10.2826V5.19565C7.25 5.08804 7.16563 5 7.0625 5H6.125C6.02188 5 5.9375 5.08804 5.9375 5.19565V10.2826C5.9375 11.4141 6.36094 12.4772 7.12813 13.2793C7.89531 14.0815 8.91563 14.5217 10 14.5217Z" fill="#333333"/>
</svg>
