<?xml version="1.0" encoding="utf-8"?>
<svg id="link" viewBox="0 0 20 20" fill="none" xmlns="http://www.w3.org/2000/svg">
    <path d="M11.0291 8.97016C10.483 8.42431 9.74252 8.11768 8.97041 8.11768C8.1983 8.11768 7.4578 8.42431 6.91173 8.97016L4.85238 11.0288C4.3063 11.5749 3.99951 12.3156 3.99951 13.0879C3.99951 13.8601 4.3063 14.6008 4.85238 15.1469C5.39847 15.693 6.13912 15.9997 6.9114 15.9997C7.68368 15.9997 8.42433 15.693 8.97041 15.1469L9.99975 14.1175"
          stroke="currentColor" stroke-width="1.3" stroke-linecap="round" stroke-linejoin="round"/>
    <path d="M8.97021 11.0291C9.51629 11.5749 10.2568 11.8816 11.0289 11.8816C11.801 11.8816 12.5415 11.5749 13.0876 11.0291L15.1469 8.97041C15.693 8.42433 15.9998 7.68368 15.9998 6.9114C15.9998 6.13912 15.693 5.39847 15.1469 4.85238C14.6008 4.3063 13.8602 3.99951 13.0879 3.99951C12.3156 3.99951 11.575 4.3063 11.0289 4.85238L9.99955 5.88172"
          stroke="currentColor" stroke-width="1.3" stroke-linecap="round" stroke-linejoin="round"/>
</svg>