<?xml version="1.0" encoding="utf-8"?>
<svg id="order_list" viewBox="0 0 20 20" fill="none" xmlns="http://www.w3.org/2000/svg">
    <path d="M16.9999 5.11673C16.9999 4.988 16.9488 4.86454 16.8578 4.77351C16.7667 4.68249 16.6433 4.63135 16.5145 4.63135H6.11768V5.60211H16.5145C16.6433 5.60211 16.7667 5.55097 16.8578 5.45995C16.9488 5.36892 16.9999 5.24546 16.9999 5.11673Z" fill="currentColor"/>
    <path d="M16.5145 8.51465H6.11768V9.48541H16.5145C16.6433 9.48541 16.7667 9.43427 16.8578 9.34325C16.9488 9.25222 16.9999 9.12876 16.9999 9.00003C16.9999 8.8713 16.9488 8.74784 16.8578 8.65681C16.7667 8.56579 16.6433 8.51465 16.5145 8.51465Z" fill="currentColor"/>
    <path d="M16.5145 12.3979H6.11768V13.3687H16.5145C16.6433 13.3687 16.7667 13.3176 16.8578 13.2265C16.9488 13.1355 16.9999 13.0121 16.9999 12.8833C16.9999 12.7546 16.9488 12.6311 16.8578 12.5401C16.7667 12.4491 16.6433 12.3979 16.5145 12.3979Z" fill="currentColor"/>
    <path d="M4.32373 4.01964C4.32378 3.96056 4.30387 3.9032 4.26723 3.85686C4.2306 3.81051 4.17938 3.7779 4.12189 3.76432C4.06411 3.75129 4.00363 3.75794 3.95007 3.78321C3.8965 3.80847 3.8529 3.85091 3.8262 3.90377C3.77757 3.99044 3.72198 4.07302 3.66 4.15071C3.5245 4.32522 3.35325 4.46876 3.15775 4.5717C3.1267 4.58696 3.09898 4.60821 3.07618 4.63423C3.05339 4.66026 3.03597 4.69054 3.02493 4.72332C3.01389 4.75611 3.00945 4.79076 3.01187 4.82527C3.01429 4.85978 3.02351 4.89347 3.03901 4.9244C3.05451 4.95533 3.07598 4.98288 3.10218 5.00548C3.12838 5.02807 3.15879 5.04525 3.19166 5.05604C3.22453 5.06682 3.25921 5.07099 3.2937 5.06831C3.32819 5.06562 3.36181 5.05614 3.39262 5.0404C3.5499 4.96176 3.68517 4.86424 3.79946 4.76306V6.11673C3.79946 6.18626 3.82708 6.25293 3.87624 6.30209C3.9254 6.35125 3.99207 6.37887 4.06159 6.37887C4.13112 6.37887 4.19779 6.35125 4.24695 6.30209C4.29611 6.25293 4.32373 6.18626 4.32373 6.11673V4.01964Z" fill="currentColor"/>
    <path d="M3.08777 8.02862C3.03977 8.07784 3.01303 8.14395 3.01332 8.2127C3.01361 8.28145 3.0409 8.34733 3.0893 8.39615C3.13771 8.44497 3.20336 8.47282 3.2721 8.47369C3.34085 8.47456 3.40718 8.44839 3.45681 8.40081L3.46048 8.39766C3.49893 8.3651 3.54055 8.33647 3.58472 8.31222C3.67436 8.26242 3.80279 8.21419 3.96163 8.21366C4.08062 8.21629 4.17655 8.24774 4.23631 8.29177C4.28664 8.32847 4.32176 8.38089 4.32176 8.47577C4.32176 8.58166 4.28507 8.64352 4.21168 8.70433C4.132 8.77038 4.02873 8.82175 3.88719 8.89199L3.81118 8.92921C3.6471 9.01151 3.44318 9.12003 3.28434 9.29459C3.11555 9.48016 3.01123 9.72392 3.01123 10.0484C3.01123 10.1179 3.03885 10.1846 3.088 10.2337C3.13715 10.2829 3.20382 10.3105 3.27334 10.3105H4.58387C4.65338 10.3105 4.72005 10.2829 4.7692 10.2337C4.81836 10.1846 4.84597 10.1179 4.84597 10.0484C4.84597 9.97889 4.81836 9.91222 4.7692 9.86307C4.72005 9.81391 4.65338 9.7863 4.58387 9.7863H3.58262C3.60421 9.73526 3.63434 9.68828 3.67174 9.64738C3.75876 9.55198 3.88247 9.47964 4.04602 9.39838L4.10893 9.36693C4.2468 9.29983 4.41559 9.21701 4.54665 9.10745C4.71911 8.96329 4.84597 8.76304 4.84597 8.47577C4.84597 8.21157 4.72907 8.00398 4.54822 7.87031C4.37733 7.74345 4.1645 7.6926 3.96844 7.68945H3.96372C3.64377 7.69019 3.33516 7.80804 3.09615 8.02075L3.09091 8.02547L3.08934 8.02705L3.08881 8.02757L3.08777 8.02862ZM3.09615 8.02075L3.08777 8.02862C3.08777 8.02862 3.14071 7.98144 3.09615 8.02075Z" fill="currentColor"/>
    <path d="M3.92985 12.6695C3.86034 12.6695 3.79367 12.6971 3.74452 12.7463C3.69536 12.7954 3.66775 12.8621 3.66775 12.9316C3.66775 13.0011 3.69536 13.0678 3.74452 13.117C3.79367 13.1661 3.86034 13.1937 3.92985 13.1937C4.10966 13.1937 4.20873 13.2446 4.25906 13.2897C4.28135 13.3089 4.299 13.333 4.31071 13.36C4.32242 13.3871 4.32788 13.4164 4.32668 13.4459C4.32249 13.5476 4.22918 13.7179 3.92985 13.7179C3.71388 13.7179 3.6017 13.6645 3.55085 13.6309C3.53367 13.6199 3.51814 13.6065 3.50472 13.5911L3.50262 13.5885C3.46862 13.5296 3.4131 13.4863 3.34776 13.4676C3.28243 13.4489 3.21238 13.4563 3.15241 13.4883C3.09243 13.5202 3.04722 13.5742 3.0263 13.6389C3.00537 13.7035 3.01038 13.7738 3.04027 13.8348V13.8359L3.04079 13.8369L3.04184 13.8385L3.04341 13.8417L3.04865 13.85C3.06376 13.8773 3.08168 13.903 3.10212 13.9266C3.13725 13.969 3.18862 14.0194 3.26044 14.0671C3.40617 14.1646 3.62214 14.2422 3.92985 14.2422C4.46979 14.2422 4.83464 13.8883 4.85037 13.4658C4.85426 13.3673 4.83783 13.269 4.80212 13.1771C4.76641 13.0852 4.71217 13.0017 4.64278 12.9316C4.78851 12.7833 4.85771 12.5904 4.85037 12.3975C4.83464 11.9749 4.46927 11.6211 3.92985 11.6211C3.62214 11.6211 3.40617 11.6987 3.26044 11.7962C3.18215 11.8482 3.11453 11.9148 3.06123 11.9922C3.05667 11.9991 3.0523 12.0061 3.04813 12.0132L3.04341 12.0216L3.04184 12.0247L3.04079 12.0268L3.04027 12.0279C3.00878 12.0891 3.00263 12.1602 3.02314 12.2259C3.04364 12.2916 3.08916 12.3466 3.14987 12.379C3.21058 12.4114 3.2816 12.4187 3.34759 12.3992C3.41359 12.3797 3.46928 12.335 3.50262 12.2748L3.50472 12.2722C3.51814 12.2568 3.53367 12.2434 3.55085 12.2323C3.6017 12.1988 3.71335 12.1453 3.92985 12.1453C4.22865 12.1453 4.32301 12.3157 4.32668 12.4174C4.32781 12.4469 4.32227 12.4762 4.31047 12.5033C4.29867 12.5303 4.28092 12.5544 4.25853 12.5736C4.20873 12.6187 4.10966 12.6695 3.92985 12.6695ZM3.50262 12.2748L3.50157 12.2764L3.50472 12.2722L3.50629 12.2674L3.50786 12.2653L3.50839 12.2638L3.50891 12.2627C3.50691 12.2668 3.50481 12.2708 3.50262 12.2748Z" fill="currentColor"/>
</svg>