<?xml version="1.0" encoding="utf-8"?>
<svg id="text_bold" viewBox="0 0 20 20" fill="none" xmlns="http://www.w3.org/2000/svg">
    <path d="M13.3179 10.5337C13.9179 9.96304 14.2857 9.19185 14.2857 8.34402V8.17772C14.2857 6.42337 12.7125 5 10.7732 5H5.48929C5.21964 5 5 5.20054 5 5.44674V16.519C5 16.7848 5.23571 17 5.52679 17H11.2179C13.3071 17 15 15.4641 15 13.5679V13.3886C15 12.1984 14.3321 11.15 13.3179 10.5337ZM6.71429 6.56522H10.7268C11.7464 6.56522 12.5714 7.28913 12.5714 8.18424V8.33913C12.5714 9.23261 11.7446 9.95815 10.7268 9.95815H6.71429V6.56522ZM13.2607 13.5663C13.2607 14.5918 12.3375 15.4234 11.1982 15.4234H6.71429V11.5332H11.1982C12.3375 11.5332 13.2607 12.3647 13.2607 13.3902V13.5663Z"
          fill="#333333"/>
</svg>