<svg width="28" height="28" viewBox="0 0 28 28" fill="none" xmlns="http://www.w3.org/2000/svg">
<path d="M21.272 10.304L14.8104 6.53482C14.7281 6.48675 14.6344 6.46143 14.5391 6.46143C14.4437 6.46143 14.35 6.48675 14.2677 6.53482L7.80614 10.304C7.72484 10.3515 7.6574 10.4194 7.61054 10.501C7.56368 10.5827 7.53903 10.6752 7.53906 10.7693V18.3077C7.53903 18.4019 7.56368 18.4944 7.61054 18.576C7.6574 18.6576 7.72484 18.7255 7.80614 18.773L14.2677 22.5422C14.35 22.5903 14.4437 22.6156 14.5391 22.6156C14.6344 22.6156 14.7281 22.5903 14.8104 22.5422L21.272 18.773C21.3533 18.7255 21.4207 18.6576 21.4676 18.576C21.5144 18.4944 21.5391 18.4019 21.5391 18.3077V10.7693C21.5391 10.6752 21.5144 10.5827 21.4676 10.501C21.4207 10.4194 21.3533 10.3515 21.272 10.304ZM14.5391 7.62359L19.9323 10.7693L14.5391 13.915L9.14583 10.7693L14.5391 7.62359ZM8.61599 11.7062L14.0006 14.847V21.14L8.61599 17.9987V11.7062ZM15.0775 21.14V14.8476L20.4621 11.7067V17.9987L15.0775 21.14Z" fill="black"/>
</svg>
