<?xml version="1.0" encoding="utf-8"?>
<svg id="text_italic" viewBox="0 0 20 20" fill="none" xmlns="http://www.w3.org/2000/svg">
    <path d="M14.8632 5H7.47863C7.40342 5 7.34188 5.06136 7.34188 5.13636V6.22727C7.34188 6.30227 7.40342 6.36364 7.47863 6.36364H10.5761L7.9094 15.6364H5.13675C5.06154 15.6364 5 15.6977 5 15.7727V16.8636C5 16.9386 5.06154 17 5.13675 17H12.5214C12.5966 17 12.6581 16.9386 12.6581 16.8636V15.7727C12.6581 15.6977 12.5966 15.6364 12.5214 15.6364H9.33162L11.9983 6.36364H14.8632C14.9385 6.36364 15 6.30227 15 6.22727V5.13636C15 5.06136 14.9385 5 14.8632 5Z"
          fill="#333333"/>
</svg>