<svg viewBox="0 0 13 15" fill="none" xmlns="http://www.w3.org/2000/svg">
    <path d="M10.6889 15H2.31113C2.13477 14.9956 1.96097 14.9546 1.79964 14.8794C1.63831 14.8042 1.49262 14.6962 1.3709 14.5616C1.24917 14.427 1.1538 14.2685 1.09023 14.095C1.02666 13.9216 0.996129 13.7366 1.00039 13.5507V4H1.91699V13.5507C1.91262 13.6098 1.91936 13.6691 1.93682 13.7254C1.95429 13.7817 1.98214 13.8338 2.01877 13.8787C2.05539 13.9236 2.10008 13.9604 2.15025 13.987C2.20043 14.0136 2.2551 14.0295 2.31113 14.0338H10.6889C10.7449 14.0295 10.7996 14.0136 10.8497 13.987C10.8999 13.9604 10.9446 13.9236 10.9812 13.8787C11.0179 13.8338 11.0457 13.7817 11.0632 13.7254C11.0806 13.6691 11.0874 13.6098 11.083 13.5507V4H11.9996V13.5507C12.0039 13.7366 11.9733 13.9216 11.9098 14.095C11.8462 14.2685 11.7508 14.427 11.6291 14.5616C11.5074 14.6962 11.3617 14.8042 11.2004 14.8794C11.039 14.9546 10.8652 14.9956 10.6889 15Z"
          fill="#F6F6F6"/>
    <path d="M12.532 4H0.467963C0.343851 4 0.224823 3.94732 0.137063 3.85355C0.0493031 3.75979 0 3.63261 0 3.5C0 3.36739 0.0493031 3.24021 0.137063 3.14645C0.224823 3.05268 0.343851 3 0.467963 3H12.532C12.6561 3 12.7752 3.05268 12.8629 3.14645C12.9507 3.24021 13 3.36739 13 3.5C13 3.63261 12.9507 3.75979 12.8629 3.85355C12.7752 3.94732 12.6561 4 12.532 4Z"
          fill="#F6F6F6"/>
    <path d="M8 5H9V12H8V5Z" fill="#F6F6F6"/>
    <path d="M4 5H5V12H4V5Z" fill="#F6F6F6"/>
    <path d="M9 2H8.05V1.03627H4.95V2H4V1.03627C3.99968 0.77018 4.09815 0.514158 4.275 0.321243C4.45186 0.128328 4.69354 0.0133043 4.95 0H8.05C8.30646 0.0133043 8.54815 0.128328 8.725 0.321243C8.90185 0.514158 9.00032 0.77018 9 1.03627V2Z"
          fill="#F6F6F6"/>
</svg>
