<?xml version="1.0" encoding="utf-8"?>
<svg id="un_order_list" viewBox="0 0 20 20" fill="currentColor" xmlns="http://www.w3.org/2000/svg">
    <path d="M4.17098 6.72672C4.69175 6.72672 5.11393 6.30455 5.11393 5.78377C5.11393 5.26299 4.69175 4.84082 4.17098 4.84082C3.6502 4.84082 3.22803 5.26299 3.22803 5.78377C3.22803 6.30455 3.6502 6.72672 4.17098 6.72672Z" fill="currentColor"/>
    <path d="M4.17098 10.4982C4.69175 10.4982 5.11393 10.076 5.11393 9.55525C5.11393 9.03448 4.69175 8.6123 4.17098 8.6123C3.6502 8.6123 3.22803 9.03448 3.22803 9.55525C3.22803 10.076 3.6502 10.4982 4.17098 10.4982Z" fill="currentColor"/>
    <path d="M4.17098 14.2702C4.69175 14.2702 5.11393 13.848 5.11393 13.3272C5.11393 12.8065 4.69175 12.3843 4.17098 12.3843C3.6502 12.3843 3.22803 12.8065 3.22803 13.3272C3.22803 13.848 3.6502 14.2702 4.17098 14.2702Z" fill="currentColor"/>
    <path d="M17.0002 5.70341C17.0002 5.57837 16.9505 5.45844 16.8621 5.37003C16.7736 5.28161 16.6537 5.23193 16.5287 5.23193H6.42969V6.17488H16.5287C16.6537 6.17488 16.7736 6.12521 16.8621 6.03679C16.9505 5.94837 17.0002 5.82845 17.0002 5.70341Z" fill="currentColor"/>
    <path d="M16.5287 9.00391H6.42969V9.94686H16.5287C16.6537 9.94686 16.7736 9.89718 16.8621 9.80876C16.9505 9.72035 17.0002 9.60042 17.0002 9.47538C17.0002 9.35034 16.9505 9.23042 16.8621 9.142C16.7736 9.05358 16.6537 9.00391 16.5287 9.00391Z" fill="currentColor"/>
    <path d="M16.5287 12.7759H6.42969V13.7188H16.5287C16.6537 13.7188 16.7736 13.6692 16.8621 13.5807C16.9505 13.4923 17.0002 13.3724 17.0002 13.2474C17.0002 13.1223 16.9505 13.0024 16.8621 12.914C16.7736 12.8256 16.6537 12.7759 16.5287 12.7759Z" fill="currentColor"/>
</svg>